<svg xmlns="http://www.w3.org/2000/svg" viewBox="0 0 14.41 51"><title>btn-shape-orange</title><polygon points="7.43 0 7.43 21.35 5.43 19.35 5.43 0 7.43 0" fill="#e0951e"/><polygon points="5.43 31.66 7.43 29.65 7.43 51 5.43 51 5.43 31.66" fill="#e0951e"/><polygon points="14.41 25.5 14.41 25.51 13 26.92 0.43 14.35 1.85 12.94 7.43 18.52 12.99 24.09 14.41 25.5" fill="#e0951e"/><polygon points="14.41 25.51 13 26.92 7.43 32.48 5.43 34.48 1.84 38.07 0.43 36.66 5.43 31.66 7.43 29.65 12.99 24.09 14.41 25.51" fill="#e0951e"/><rect x="2.68" y="20.38" width="2" height="6.83" transform="translate(22.55 38.01) rotate(135)" fill="#e0951e"/><rect x="2.69" y="23.8" width="2" height="6.78" transform="translate(19.75 5.35) rotate(45)" fill="#e0951e"/></svg>