<svg xmlns="http://www.w3.org/2000/svg" viewBox="0 0 14.41 153"><title>btn-shape-blue</title><polygon points="7.43 0 7.43 72.35 5.43 70.35 5.43 0 7.43 0" fill="#0496ee"/><polygon points="5.43 82.66 7.43 80.65 7.43 153 5.43 153 5.43 82.66" fill="#0496ee"/><polygon points="14.41 76.5 14.41 76.51 13 77.92 0.43 65.35 1.85 63.94 7.43 69.52 12.99 75.09 14.41 76.5" fill="#0496ee"/><polygon points="14.41 76.51 13 77.92 7.43 83.48 5.43 85.48 1.84 89.07 0.43 87.66 5.43 82.66 7.43 80.65 12.99 75.09 14.41 76.51" fill="#0496ee"/><rect x="2.12" y="71.37" width="2" height="6.83" transform="translate(-51.97 24.11) rotate(-45)" fill="#0496ee"/><rect x="-0.26" y="77.19" width="6.78" height="2" transform="translate(-54.37 25.12) rotate(-45)" fill="#0496ee"/></svg>